# xmcd
#
# Track frame offsets: 
#        150
#        18338
#        34539
#        48450
#        68280
#        85884
#        102316
#        125125
#        140429
#        160037
#        174234
#        192835
#        212081
#
# Disc length: 3068 seconds
#
# Revision: 0
# Processed by: cddbd v1.5.2PL0 Copyright (c) Steve Scherf et al.
# Submitted via: ExactAudioCopy v0.99pb4
#
DISCID=a50bfa0d
DTITLE=Studebaker John and The Hawks - Tremoluxe
DYEAR=1996
DGENRE=Blues
TTITLE0=Two Time Boogie
TTITLE1=Cold, Cold Heart
TTITLE2=Gonna Start To Walkin'
TTITLE3=Missing You
TTITLE4=Since Day One
TTITLE5=Last Night
TTITLE6=Voodoo Woman
TTITLE7=We're Gonna Rock
TTITLE8=My Way Or The Highway
TTITLE9=Talk To Me Baby
TTITLE10=Rock My Baby Right
TTITLE11=Hey, Hey, Hey
TTITLE12=Boogie Twist
EXTD=
EXTT0=
EXTT1=
EXTT2=
EXTT3=
EXTT4=
EXTT5=
EXTT6=
EXTT7=
EXTT8=
EXTT9=
EXTT10=
EXTT11=
EXTT12=
PLAYORDER=
